<?xml version="1.0" encoding="utf-8"?>
<svg width="16px" height="16px" viewBox="0 0 16 16" version="1.1" xmlns:xlink="http://www.w3.org/1999/xlink" xmlns="http://www.w3.org/2000/svg">
  <defs>
    <path d="M0 0L16 0L16 16L0 16L0 0Z" id="path_1" />
    <clipPath id="mask_1">
      <use xlink:href="#path_1" />
    </clipPath>
  </defs>
  <g id="Group-2">
    <path d="M0 0L16 0L16 16L0 16L0 0Z" id="Background" fill="#FFFFFF" fill-opacity="0" fill-rule="evenodd" stroke="none" />
    <g clip-path="url(#mask_1)">
      <path d="M1 5L1 3C1 2.44772 1.19526 1.97631 1.58579 1.58579C1.97631 1.19526 2.44772 1 3 1L13 1C13.5523 1 14.0237 1.19526 14.4142 1.58579C14.8047 1.97631 15 2.44772 15 3L15 13C15 13.5523 14.8047 14.0237 14.4142 14.4142C14.0237 14.8047 13.5523 15 13 15L3 15C2.44772 15 1.97631 14.8047 1.58579 14.4142C1.19526 14.0237 1 13.5523 1 13L1 5Z" id="Rectangle-36" fill="#FFFFFF" fill-rule="evenodd" stroke="none" />
      <g id="Page-1#1" transform="translate(5 7.3986206)">
        <g id="Group" transform="translate(2 0)">
          <path d="M1 0L1 6" id="Stroke-1" fill="none" fill-rule="evenodd" stroke="#129D57" stroke-width="2" stroke-linecap="round" />
        </g>
        <g id="Group" transform="translate(3 0)">
          <path d="M0 0L3 3" id="Stroke-3" fill="none" fill-rule="evenodd" stroke="#129D57" stroke-width="2" stroke-linecap="round" />
        </g>
        <g id="Group">
          <path d="M3 0L0 3" id="Stroke-5" fill="none" fill-rule="evenodd" stroke="#129D57" stroke-width="2" stroke-linecap="round" />
        </g>
      </g>
      <g id="Group" transform="translate(4.9624023 3.3985596)">
        <path d="M3 0L6 3" id="Stroke-3" fill="none" fill-rule="evenodd" stroke="#129D57" stroke-width="2" stroke-linecap="round" />
        <path d="M3 0L0 3" id="Stroke-5" fill="none" fill-rule="evenodd" stroke="#129D57" stroke-width="2" stroke-linecap="round" />
      </g>
    </g>
  </g>
</svg>