<?xml version="1.0" encoding="utf-8"?>
<svg width="16px" height="16px" viewBox="0 0 16 16" version="1.1" xmlns:xlink="http://www.w3.org/1999/xlink" xmlns="http://www.w3.org/2000/svg">
  <defs>
    <path d="M0 0L16 0L16 16L0 16L0 0Z" id="path_1" />
    <clipPath id="mask_1">
      <use xlink:href="#path_1" />
    </clipPath>
  </defs>
  <g id="10310">
    <path d="M0 0L16 0L16 16L0 16L0 0Z" id="Background" fill="#FFFFFF" fill-opacity="0" fill-rule="evenodd" stroke="none" />
    <g id="Page-1" transform="translate(1 1)">
      <g id="improvement">
        <g id="Improvement">
          <path d="M0 4L0 2C0 1.44772 0.195262 0.976311 0.585786 0.585786C0.976311 0.195262 1.44772 0 2 0L12 0C12.5523 0 13.0237 0.195262 13.4142 0.585786C13.8047 0.976311 14 1.44772 14 2L14 12C14 12.5523 13.8047 13.0237 13.4142 13.4142C13.0237 13.8047 12.5523 14 12 14L2 14C1.44772 14 0.976311 13.8047 0.585786 13.4142C0.195262 13.0237 0 12.5523 0 12L0 4Z" id="Rectangle-36" fill="#FFFFFF" fill-rule="evenodd" stroke="none" />
          <g id="Page-1#1" transform="translate(4 4)">
            <g id="Group" transform="translate(2 0)">
              <path d="M1 0L1 6" id="Stroke-1" fill="none" fill-rule="evenodd" stroke="#129D57" stroke-width="2" stroke-linecap="round" />
            </g>
            <g id="Group" transform="translate(3 0)">
              <path d="M0 0L3 3" id="Stroke-3" fill="none" fill-rule="evenodd" stroke="#129D57" stroke-width="2" stroke-linecap="round" />
            </g>
            <g id="Group">
              <path d="M3 0L0 3" id="Stroke-5" fill="none" fill-rule="evenodd" stroke="#129D57" stroke-width="2" stroke-linecap="round" />
            </g>
          </g>
        </g>
      </g>
    </g>
  </g>
</svg>