<?xml version="1.0" encoding="utf-8"?>
<svg width="207px" height="36px" viewBox="0 0 207 36" version="1.1" xmlns:xlink="http://www.w3.org/1999/xlink" xmlns="http://www.w3.org/2000/svg">
  <defs>
    <path d="M207 0L207 0L207 36L0 36L0 0L207 0Z" id="path_1" />
    <clipPath id="clip_1">
      <use xlink:href="#path_1" clip-rule="evenodd" fill-rule="evenodd" />
    </clipPath>
  </defs>
  <g id="Frame">
    <path d="M207 0L207 0L207 36L0 36L0 0L207 0Z" id="Frame" fill="#FFFFFF" fill-opacity="0" stroke="none" />
    <path d="M19 29.5C19 29.776 18.776 30 18.5 30L12.5 30C10.019 30 8 27.981 8 25.5L8 10.501C8 8.02 10.018 6 12.5 6L23.5 6C25.981 6 28 8.018 28 10.499L28 13.499C28 13.775 27.777 13.999 27.5 13.999C27.223 13.999 27 13.775 27 13.499L27 10.499C27 8.569 25.429 6.999 23.5 6.999L12.5 6.999C10.57 6.999 9 8.57 9 10.5L9 25.499C9 27.429 10.571 28.999 12.5 28.999L18.5 28.999C18.776 28.999 19 29.223 19 29.499L19 29.5ZM31.854 29.854C31.756 29.952 31.628 30 31.5 30C31.372 30 31.244 29.951 31.146 29.854L27.723 26.431C26.586 27.407 25.112 28 23.499 28C19.915 28 16.999 25.084 16.999 21.5C16.999 17.916 19.915 15 23.499 15C27.083 15 29.999 17.916 29.999 21.5C29.999 23.112 29.405 24.586 28.43 25.724L31.853 29.147C32.048 29.342 32.048 29.659 31.853 29.854L31.854 29.854ZM29 21.5C29 18.468 26.533 16 23.5 16C20.467 16 18 18.468 18 21.5C18 24.532 20.467 27 23.5 27C26.533 27 29 24.532 29 21.5L29 21.5ZM14.5 11L12.5 11C12.224 11 12 11.224 12 11.5C12 11.776 12.224 12 12.5 12L14.5 12C14.776 12 15 11.776 15 11.5C15 11.224 14.776 11 14.5 11L14.5 11ZM14.5 21L12.5 21C12.224 21 12 21.224 12 21.5C12 21.776 12.224 22 12.5 22L14.5 22C14.776 22 15 21.776 15 21.5C15 21.224 14.776 21 14.5 21L14.5 21ZM17.5 11C17.224 11 17 11.224 17 11.5C17 11.776 17.224 12 17.5 12L23.5 12C23.776 12 24 11.776 24 11.5C24 11.224 23.776 11 23.5 11L17.5 11L17.5 11ZM14.5 16L12.5 16C12.224 16 12 16.224 12 16.5C12 16.776 12.224 17 12.5 17L14.5 17C14.776 17 15 16.776 15 16.5C15 16.224 14.776 16 14.5 16L14.5 16ZM26.143 20.131L23.437 22.749C23.1 23.079 22.551 23.083 22.214 22.753L20.851 21.408C20.655 21.214 20.338 21.216 20.144 21.412C19.95 21.609 19.952 21.926 20.149 22.119L21.513 23.466C21.875 23.82 22.35 23.997 22.825 23.997C23.3 23.997 23.776 23.819 24.136 23.464L26.839 20.85C27.037 20.658 27.043 20.341 26.851 20.143C26.66 19.945 26.343 19.941 26.144 20.131L26.143 20.131Z" id="Shape" fill="#000000" fill-rule="evenodd" stroke="none" clip-path="url(#clip_1)" />
    <g id="Muhammad-Fahreza" transform="translate(40 8)" clip-path="url(#clip_1)">
      <g transform="translate(0, 4.368)" id="Muhammad-Fahreza" fill="#2D2D2D">
        <path d="M1.168 15.744L2.432 3.856L4.304 3.856L6.944 11.584L7.52 13.808L8.096 11.584L10.576 3.856L12.352 3.856L13.888 15.744L12.56 15.744L11.728 8.352L11.376 4.832L10.416 8.352L7.888 15.856L7.168 15.856L4.512 8.352L3.456 4.832L3.152 8.352L2.448 15.744L1.168 15.744ZM18.88 15.872Q18.024 15.872 17.504 15.596Q16.984 15.32 16.72 14.812Q16.456 14.304 16.364 13.608Q16.272 12.912 16.272 12.064L16.272 6.832L17.568 6.832L17.568 12.112Q17.568 13.232 17.74 13.808Q17.912 14.384 18.312 14.584Q18.712 14.784 19.408 14.784Q19.856 14.784 20.328 14.656Q20.8 14.528 21.204 14.336Q21.608 14.144 21.856 13.952L21.856 6.832L23.168 6.832L23.168 15.84L22.656 15.84Q22.344 15.84 22.172 15.748Q22 15.656 22 15.312L22 14.592L22.016 14.816Q21.6 15.112 21.072 15.352Q20.544 15.592 19.976 15.732Q19.408 15.872 18.88 15.872ZM26.112 15.744L26.112 2.736L27.424 2.736L27.424 6.704L27.344 8.08L27.28 7.984Q27.6 7.72 28.132 7.428Q28.664 7.136 29.312 6.928Q29.96 6.72 30.624 6.704Q32.104 6.68 32.748 7.524Q33.392 8.368 33.376 10.448L33.376 15.744L32.08 15.744L32.08 10.368Q32.08 8.912 31.66 8.332Q31.24 7.752 30.096 7.792Q29.44 7.816 28.696 8.144Q27.952 8.472 27.424 8.88L27.424 15.744L26.112 15.744ZM38.256 15.872Q37.472 15.872 36.86 15.576Q36.248 15.28 35.9 14.724Q35.552 14.168 35.552 13.392Q35.552 12.512 36.044 11.9Q36.536 11.288 37.472 10.944Q37.992 10.744 38.624 10.628Q39.256 10.512 39.868 10.464Q40.48 10.416 40.944 10.416L41.232 10.784L40.944 11.248Q40.624 11.248 40.12 11.288Q39.616 11.328 39.092 11.42Q38.568 11.512 38.192 11.664Q37.52 11.912 37.176 12.304Q36.832 12.696 36.832 13.296Q36.832 13.992 37.256 14.444Q37.68 14.896 38.64 14.896Q39.208 14.896 39.7 14.744Q40.192 14.592 40.528 14.404Q40.864 14.216 40.96 14.112L41.248 14.368L41.04 14.896Q40.68 15.232 39.948 15.552Q39.216 15.872 38.256 15.872ZM42.24 15.744L41.024 15.744L41.024 14.48L40.944 14.464L40.944 9.488Q40.944 8.464 40.428 8.12Q39.912 7.776 38.864 7.776Q38.416 7.776 37.916 7.892Q37.416 8.008 36.992 8.184Q36.568 8.36 36.336 8.528L36.016 7.6Q36.168 7.496 36.652 7.28Q37.136 7.064 37.808 6.884Q38.48 6.704 39.2 6.704Q40.112 6.704 40.796 6.944Q41.48 7.184 41.86 7.8Q42.24 8.416 42.24 9.536L42.24 15.744ZM45.168 15.744L45.168 6.848L46.336 6.848L46.336 7.984Q46.664 7.72 47.2 7.428Q47.736 7.136 48.368 6.928Q49 6.72 49.616 6.704Q50.512 6.688 51.068 6.996Q51.624 7.304 51.884 8.072Q52.144 8.84 52.144 10.208L52.144 15.744L50.848 15.744L50.848 10.304Q50.848 9.416 50.716 8.852Q50.584 8.288 50.204 8.032Q49.824 7.776 49.088 7.808Q48.504 7.832 47.756 8.14Q47.008 8.448 46.48 8.88L46.48 15.744L45.168 15.744ZM52.016 8.768L51.728 7.968Q52.056 7.704 52.584 7.412Q53.112 7.12 53.752 6.916Q54.392 6.712 55.056 6.704Q56 6.696 56.572 7.032Q57.144 7.368 57.404 8.148Q57.664 8.928 57.664 10.256L57.664 15.744L56.368 15.744L56.368 10.32Q56.368 9.488 56.244 8.916Q56.12 8.344 55.732 8.056Q55.344 7.768 54.56 7.792Q53.928 7.8 53.224 8.108Q52.52 8.416 52.016 8.768ZM60.672 15.744L60.672 6.848L61.84 6.848L61.84 7.984Q62.168 7.72 62.704 7.428Q63.24 7.136 63.872 6.928Q64.504 6.72 65.12 6.704Q66.016 6.688 66.572 6.996Q67.128 7.304 67.388 8.072Q67.648 8.84 67.648 10.208L67.648 15.744L66.352 15.744L66.352 10.304Q66.352 9.416 66.22 8.852Q66.088 8.288 65.708 8.032Q65.328 7.776 64.592 7.808Q64.008 7.832 63.26 8.14Q62.512 8.448 61.984 8.88L61.984 15.744L60.672 15.744ZM67.52 8.768L67.232 7.968Q67.56 7.704 68.088 7.412Q68.616 7.12 69.256 6.916Q69.896 6.712 70.56 6.704Q71.504 6.696 72.076 7.032Q72.648 7.368 72.908 8.148Q73.168 8.928 73.168 10.256L73.168 15.744L71.872 15.744L71.872 10.32Q71.872 9.488 71.748 8.916Q71.624 8.344 71.236 8.056Q70.848 7.768 70.064 7.792Q69.432 7.8 68.728 8.108Q68.024 8.416 67.52 8.768ZM78.048 15.872Q77.264 15.872 76.652 15.576Q76.04 15.28 75.692 14.724Q75.344 14.168 75.344 13.392Q75.344 12.512 75.836 11.9Q76.328 11.288 77.264 10.944Q77.784 10.744 78.416 10.628Q79.048 10.512 79.66 10.464Q80.272 10.416 80.736 10.416L81.024 10.784L80.736 11.248Q80.416 11.248 79.912 11.288Q79.408 11.328 78.884 11.42Q78.36 11.512 77.984 11.664Q77.312 11.912 76.968 12.304Q76.624 12.696 76.624 13.296Q76.624 13.992 77.048 14.444Q77.472 14.896 78.432 14.896Q79 14.896 79.492 14.744Q79.984 14.592 80.32 14.404Q80.656 14.216 80.752 14.112L81.04 14.368L80.832 14.896Q80.472 15.232 79.74 15.552Q79.008 15.872 78.048 15.872ZM82.032 15.744L80.816 15.744L80.816 14.48L80.736 14.464L80.736 9.488Q80.736 8.464 80.22 8.12Q79.704 7.776 78.656 7.776Q78.208 7.776 77.708 7.892Q77.208 8.008 76.784 8.184Q76.36 8.36 76.128 8.528L75.808 7.6Q75.96 7.496 76.444 7.28Q76.928 7.064 77.6 6.884Q78.272 6.704 78.992 6.704Q79.904 6.704 80.588 6.944Q81.272 7.184 81.652 7.8Q82.032 8.416 82.032 9.536L82.032 15.744ZM90.496 15.744L90.496 14.512L90.432 14.48L90.432 7.92L90.48 7.888L90.432 6.48L90.432 2.736L91.696 2.736L91.696 15.744L90.496 15.744ZM87.744 15.872Q86.832 15.872 86.028 15.428Q85.224 14.984 84.724 14.036Q84.224 13.088 84.224 11.584Q84.224 10.16 84.78 9.064Q85.336 7.968 86.34 7.344Q87.344 6.72 88.688 6.72Q89.552 6.72 90.168 6.92Q90.784 7.12 90.928 7.264L90.448 8.112Q90.232 7.92 89.764 7.792Q89.296 7.664 88.56 7.664Q87.712 7.664 87.036 8.104Q86.36 8.544 85.964 9.38Q85.568 10.216 85.552 11.408Q85.528 13.144 86.212 13.996Q86.896 14.848 88.096 14.848Q88.88 14.848 89.504 14.528Q90.128 14.208 90.448 13.936L90.656 14.608Q90.464 14.8 90.096 15.1Q89.728 15.4 89.148 15.636Q88.568 15.872 87.744 15.872ZM97.52 15.744L97.52 3.856L104.16 3.856L104.16 4.88L98.832 4.88L98.832 9.264L102.816 9.264L102.816 10.288L98.832 10.288L98.832 15.744L97.52 15.744ZM107.312 15.872Q106.528 15.872 105.916 15.576Q105.304 15.28 104.956 14.724Q104.608 14.168 104.608 13.392Q104.608 12.512 105.1 11.9Q105.592 11.288 106.528 10.944Q107.048 10.744 107.68 10.628Q108.312 10.512 108.924 10.464Q109.536 10.416 110 10.416L110.288 10.784L110 11.248Q109.68 11.248 109.176 11.288Q108.672 11.328 108.148 11.42Q107.624 11.512 107.248 11.664Q106.576 11.912 106.232 12.304Q105.888 12.696 105.888 13.296Q105.888 13.992 106.312 14.444Q106.736 14.896 107.696 14.896Q108.264 14.896 108.756 14.744Q109.248 14.592 109.584 14.404Q109.92 14.216 110.016 14.112L110.304 14.368L110.096 14.896Q109.736 15.232 109.004 15.552Q108.272 15.872 107.312 15.872ZM111.296 15.744L110.08 15.744L110.08 14.48L110 14.464L110 9.488Q110 8.464 109.484 8.12Q108.968 7.776 107.92 7.776Q107.472 7.776 106.972 7.892Q106.472 8.008 106.048 8.184Q105.624 8.36 105.392 8.528L105.072 7.6Q105.224 7.496 105.708 7.28Q106.192 7.064 106.864 6.884Q107.536 6.704 108.256 6.704Q109.168 6.704 109.852 6.944Q110.536 7.184 110.916 7.8Q111.296 8.416 111.296 9.536L111.296 15.744ZM114.192 15.744L114.192 2.736L115.504 2.736L115.504 6.704L115.424 8.08L115.36 7.984Q115.68 7.72 116.212 7.428Q116.744 7.136 117.392 6.928Q118.04 6.72 118.704 6.704Q120.184 6.68 120.828 7.524Q121.472 8.368 121.456 10.448L121.456 15.744L120.16 15.744L120.16 10.368Q120.16 8.912 119.74 8.332Q119.32 7.752 118.176 7.792Q117.52 7.816 116.776 8.144Q116.032 8.472 115.504 8.88L115.504 15.744L114.192 15.744ZM125.536 8.976L125.44 8.112Q125.576 7.888 126 7.56Q126.424 7.232 127.008 6.976Q127.592 6.72 128.208 6.72Q128.512 6.72 128.724 6.744Q128.936 6.768 129.056 6.816L129.056 8.048Q128.936 7.984 128.7 7.92Q128.464 7.856 127.968 7.856Q127.424 7.856 126.948 8.044Q126.472 8.232 126.108 8.492Q125.744 8.752 125.536 8.976ZM124.304 15.744L124.304 6.848L125.424 6.848L125.504 8.112L125.616 8.672L125.616 15.744L124.304 15.744ZM133.872 15.872Q132 15.872 131 14.668Q130 13.464 130 11.328Q130 9.992 130.464 8.956Q130.928 7.92 131.816 7.324Q132.704 6.728 133.984 6.72Q134.696 6.704 135.276 6.94Q135.856 7.176 136.276 7.62Q136.696 8.064 136.932 8.684Q137.168 9.304 137.184 10.064Q137.184 10.48 137.176 10.812Q137.168 11.144 137.12 11.424L130.784 11.424L130.896 10.544L135.952 10.544Q136 9.728 135.82 9.072Q135.64 8.416 135.176 8.032Q134.712 7.648 133.904 7.648Q133.136 7.648 132.528 8.06Q131.92 8.472 131.58 9.376Q131.24 10.28 131.28 11.744Q131.32 12.888 131.704 13.576Q132.088 14.264 132.736 14.572Q133.384 14.88 134.208 14.88Q134.616 14.88 135.084 14.776Q135.552 14.672 135.964 14.516Q136.376 14.36 136.608 14.208L136.88 15.056Q136.592 15.296 136.096 15.48Q135.6 15.664 135.012 15.768Q134.424 15.872 133.872 15.872ZM138.944 15.744L138.672 15.232L143.328 8.608L143.872 7.84L139.056 7.84L139.056 6.832L145.408 6.832L145.632 7.408L140.992 14.032L140.432 14.784L145.552 14.784L145.552 15.744L138.944 15.744ZM149.888 15.872Q149.104 15.872 148.492 15.576Q147.88 15.28 147.532 14.724Q147.184 14.168 147.184 13.392Q147.184 12.512 147.676 11.9Q148.168 11.288 149.104 10.944Q149.624 10.744 150.256 10.628Q150.888 10.512 151.5 10.464Q152.112 10.416 152.576 10.416L152.864 10.784L152.576 11.248Q152.256 11.248 151.752 11.288Q151.248 11.328 150.724 11.42Q150.2 11.512 149.824 11.664Q149.152 11.912 148.808 12.304Q148.464 12.696 148.464 13.296Q148.464 13.992 148.888 14.444Q149.312 14.896 150.272 14.896Q150.84 14.896 151.332 14.744Q151.824 14.592 152.16 14.404Q152.496 14.216 152.592 14.112L152.88 14.368L152.672 14.896Q152.312 15.232 151.58 15.552Q150.848 15.872 149.888 15.872ZM153.872 15.744L152.656 15.744L152.656 14.48L152.576 14.464L152.576 9.488Q152.576 8.464 152.06 8.12Q151.544 7.776 150.496 7.776Q150.048 7.776 149.548 7.892Q149.048 8.008 148.624 8.184Q148.2 8.36 147.968 8.528L147.648 7.6Q147.8 7.496 148.284 7.28Q148.768 7.064 149.44 6.884Q150.112 6.704 150.832 6.704Q151.744 6.704 152.428 6.944Q153.112 7.184 153.492 7.8Q153.872 8.416 153.872 9.536L153.872 15.744Z" />
      </g>
    </g>
  </g>
</svg>