<?xml version="1.0" encoding="utf-8"?>
<svg width="182px" height="40px" viewBox="0 0 182 40" version="1.1" xmlns:xlink="http://www.w3.org/1999/xlink" xmlns="http://www.w3.org/2000/svg">
  <defs>
    <path d="M182 0L182 0L182 40L0 40L0 0L182 0Z" id="path_1" />
    <path d="M24 0L24 0L24 24L0 24L0 0L24 0Z" id="path_2" />
    <clipPath id="clip_1">
      <use xlink:href="#path_1" clip-rule="evenodd" fill-rule="evenodd" />
    </clipPath>
    <clipPath id="clip_2">
      <use xlink:href="#path_2" clip-rule="evenodd" fill-rule="evenodd" />
    </clipPath>
  </defs>
  <g id="Group">
    <g id="Frame">
      <path d="M182 0L182 0L182 40L0 40L0 0L182 0Z" id="Frame" fill="#FFFFFF" fill-opacity="0" stroke="none" />
      <g id="Group" transform="translate(4 8)" clip-path="url(#clip_1)">
        <g id="Muhammad-Fahreza" transform="translate(29 2)">
          <g transform="translate(0, 4.368)" id="Muhammad-Fahreza" fill="#2D2D2D">
            <path d="M0.952 15.744L2.176 3.856L4.816 3.856L6.912 10.544L7.528 13.088L8.08 10.544L10.072 3.856L12.6 3.856L14.024 15.744L12.152 15.744L11.448 8.536L11.224 5.256L10.408 8.536L8.064 15.856L6.936 15.856L4.472 8.536L3.608 5.256L3.376 8.536L2.752 15.744L0.952 15.744ZM18.248 15.872Q17.376 15.872 16.84 15.6Q16.304 15.328 16.024 14.82Q15.744 14.312 15.644 13.608Q15.544 12.904 15.544 12.048L15.544 6.832L17.384 6.832L17.384 12.032Q17.384 13.088 17.548 13.584Q17.712 14.08 18.06 14.224Q18.408 14.368 18.968 14.368Q19.296 14.368 19.668 14.268Q20.04 14.168 20.368 14.028Q20.696 13.888 20.888 13.76L20.888 6.832L22.728 6.832L22.728 15.872L21.88 15.872Q21.512 15.872 21.296 15.764Q21.08 15.656 21.08 15.216L21.08 14.592L21.112 14.944Q20.752 15.184 20.268 15.396Q19.784 15.608 19.256 15.74Q18.728 15.872 18.248 15.872ZM24.872 15.744L24.872 2.736L26.712 2.736L26.712 6.4L26.616 8.008L26.528 7.8Q26.848 7.544 27.344 7.296Q27.84 7.048 28.416 6.884Q28.992 6.72 29.56 6.704Q31.016 6.664 31.676 7.504Q32.336 8.344 32.336 10.296L32.336 15.744L30.496 15.744L30.496 10.28Q30.496 9.184 30.156 8.696Q29.816 8.208 28.84 8.256Q28.416 8.264 27.824 8.456Q27.232 8.648 26.712 9.04L26.712 15.744L24.872 15.744ZM36.376 15.872Q35.576 15.872 34.956 15.556Q34.336 15.24 33.98 14.66Q33.624 14.08 33.624 13.288Q33.624 12.432 34.084 11.836Q34.544 11.24 35.32 10.904Q35.832 10.696 36.432 10.572Q37.032 10.448 37.632 10.396Q38.232 10.344 38.744 10.344L39.128 10.832L38.744 11.48Q38.432 11.48 37.996 11.524Q37.56 11.568 37.136 11.66Q36.712 11.752 36.416 11.896Q36.008 12.08 35.736 12.368Q35.464 12.656 35.464 13.168Q35.464 13.84 35.836 14.184Q36.208 14.528 36.944 14.528Q37.32 14.528 37.704 14.416Q38.088 14.304 38.372 14.16Q38.656 14.016 38.744 13.912L39.112 14.304L38.848 14.992Q38.496 15.312 37.832 15.592Q37.168 15.872 36.376 15.872ZM40.592 15.744L38.848 15.744L38.848 14.416L38.744 14.416L38.744 9.504Q38.744 8.72 38.332 8.468Q37.92 8.216 37.16 8.216Q36.656 8.216 36.12 8.316Q35.584 8.416 35.136 8.564Q34.688 8.712 34.448 8.864L34.016 7.536Q34.2 7.424 34.724 7.224Q35.248 7.024 35.948 6.86Q36.648 6.696 37.336 6.696Q38.336 6.696 39.068 6.928Q39.8 7.16 40.196 7.788Q40.592 8.416 40.592 9.608L40.592 15.744ZM42.608 15.744L42.608 6.848L44.264 6.848L44.272 7.792Q44.6 7.568 45.092 7.32Q45.584 7.072 46.16 6.896Q46.736 6.72 47.312 6.704Q48.272 6.672 48.856 7Q49.44 7.328 49.708 8.096Q49.976 8.864 49.976 10.168L49.976 15.744L48.136 15.744L48.136 10.28Q48.136 9.552 48.012 9.092Q47.888 8.632 47.552 8.424Q47.216 8.216 46.56 8.248Q46.144 8.256 45.556 8.452Q44.968 8.648 44.448 9.04L44.448 15.744L42.608 15.744ZM49.88 9.048L49.488 7.88Q49.8 7.616 50.316 7.352Q50.832 7.088 51.452 6.9Q52.072 6.712 52.704 6.704Q53.656 6.688 54.256 7.008Q54.856 7.328 55.14 8.092Q55.424 8.856 55.424 10.16L55.424 15.744L53.576 15.744L53.576 10.28Q53.576 9.552 53.46 9.092Q53.344 8.632 53.012 8.424Q52.68 8.216 52.016 8.248Q51.552 8.256 50.96 8.476Q50.368 8.696 49.88 9.048ZM57.512 15.744L57.512 6.848L59.168 6.848L59.176 7.792Q59.504 7.568 59.996 7.32Q60.488 7.072 61.064 6.896Q61.64 6.72 62.216 6.704Q63.176 6.672 63.76 7Q64.344 7.328 64.612 8.096Q64.88 8.864 64.88 10.168L64.88 15.744L63.04 15.744L63.04 10.28Q63.04 9.552 62.916 9.092Q62.792 8.632 62.456 8.424Q62.12 8.216 61.464 8.248Q61.048 8.256 60.46 8.452Q59.872 8.648 59.352 9.04L59.352 15.744L57.512 15.744ZM64.784 9.048L64.392 7.88Q64.704 7.616 65.22 7.352Q65.736 7.088 66.356 6.9Q66.976 6.712 67.608 6.704Q68.56 6.688 69.16 7.008Q69.76 7.328 70.044 8.092Q70.328 8.856 70.328 10.16L70.328 15.744L68.48 15.744L68.48 10.28Q68.48 9.552 68.364 9.092Q68.248 8.632 67.916 8.424Q67.584 8.216 66.92 8.248Q66.456 8.256 65.864 8.476Q65.272 8.696 64.784 9.048ZM74.368 15.872Q73.568 15.872 72.948 15.556Q72.328 15.24 71.972 14.66Q71.616 14.08 71.616 13.288Q71.616 12.432 72.076 11.836Q72.536 11.24 73.312 10.904Q73.824 10.696 74.424 10.572Q75.024 10.448 75.624 10.396Q76.224 10.344 76.736 10.344L77.12 10.832L76.736 11.48Q76.424 11.48 75.988 11.524Q75.552 11.568 75.128 11.66Q74.704 11.752 74.408 11.896Q74 12.08 73.728 12.368Q73.456 12.656 73.456 13.168Q73.456 13.84 73.828 14.184Q74.2 14.528 74.936 14.528Q75.312 14.528 75.696 14.416Q76.08 14.304 76.364 14.16Q76.648 14.016 76.736 13.912L77.104 14.304L76.84 14.992Q76.488 15.312 75.824 15.592Q75.16 15.872 74.368 15.872ZM78.584 15.744L76.84 15.744L76.84 14.416L76.736 14.416L76.736 9.504Q76.736 8.72 76.324 8.468Q75.912 8.216 75.152 8.216Q74.648 8.216 74.112 8.316Q73.576 8.416 73.128 8.564Q72.68 8.712 72.44 8.864L72.008 7.536Q72.192 7.424 72.716 7.224Q73.24 7.024 73.94 6.86Q74.64 6.696 75.328 6.696Q76.328 6.696 77.06 6.928Q77.792 7.16 78.188 7.788Q78.584 8.416 78.584 9.608L78.584 15.744ZM85.976 15.744L85.976 14.56L85.88 14.512L85.88 8.208L85.944 8.16L85.88 6.4L85.88 2.736L87.72 2.736L87.72 15.744L85.976 15.744ZM83.488 15.872Q82.552 15.872 81.748 15.408Q80.944 14.944 80.452 14Q79.96 13.056 79.96 11.608Q79.96 10.16 80.52 9.06Q81.08 7.96 82.084 7.34Q83.088 6.72 84.44 6.72Q85.264 6.72 85.824 6.916Q86.384 7.112 86.536 7.248L85.88 8.424Q85.64 8.216 85.244 8.136Q84.848 8.056 84.304 8.056Q83.624 8.056 83.076 8.432Q82.528 8.808 82.2 9.552Q81.872 10.296 81.864 11.392Q81.84 12.96 82.408 13.688Q82.976 14.416 84 14.416Q84.624 14.416 85.116 14.184Q85.608 13.952 85.88 13.736L86.184 14.648Q85.992 14.848 85.672 15.136Q85.352 15.424 84.824 15.648Q84.296 15.872 83.488 15.872ZM92.104 15.744L92.104 3.856L99 3.856L99 5.296L93.992 5.296L93.992 9.056L97.736 9.056L97.736 10.496L93.992 10.496L93.992 15.744L92.104 15.744ZM101.392 15.872Q100.592 15.872 99.972 15.556Q99.352 15.24 98.996 14.66Q98.64 14.08 98.64 13.288Q98.64 12.432 99.1 11.836Q99.56 11.24 100.336 10.904Q100.848 10.696 101.448 10.572Q102.048 10.448 102.648 10.396Q103.248 10.344 103.76 10.344L104.144 10.832L103.76 11.48Q103.448 11.48 103.012 11.524Q102.576 11.568 102.152 11.66Q101.728 11.752 101.432 11.896Q101.024 12.08 100.752 12.368Q100.48 12.656 100.48 13.168Q100.48 13.84 100.852 14.184Q101.224 14.528 101.96 14.528Q102.336 14.528 102.72 14.416Q103.104 14.304 103.388 14.16Q103.672 14.016 103.76 13.912L104.128 14.304L103.864 14.992Q103.512 15.312 102.848 15.592Q102.184 15.872 101.392 15.872ZM105.608 15.744L103.864 15.744L103.864 14.416L103.76 14.416L103.76 9.504Q103.76 8.72 103.348 8.468Q102.936 8.216 102.176 8.216Q101.672 8.216 101.136 8.316Q100.6 8.416 100.152 8.564Q99.704 8.712 99.464 8.864L99.032 7.536Q99.216 7.424 99.74 7.224Q100.264 7.024 100.964 6.86Q101.664 6.696 102.352 6.696Q103.352 6.696 104.084 6.928Q104.816 7.16 105.212 7.788Q105.608 8.416 105.608 9.608L105.608 15.744ZM107.616 15.744L107.616 2.736L109.456 2.736L109.456 6.4L109.36 8.008L109.272 7.8Q109.592 7.544 110.088 7.296Q110.584 7.048 111.16 6.884Q111.736 6.72 112.304 6.704Q113.76 6.664 114.42 7.504Q115.08 8.344 115.08 10.296L115.08 15.744L113.24 15.744L113.24 10.28Q113.24 9.184 112.9 8.696Q112.56 8.208 111.584 8.256Q111.16 8.264 110.568 8.456Q109.976 8.648 109.456 9.04L109.456 15.744L107.616 15.744ZM118.752 9.2L118.64 7.984Q118.76 7.736 119.144 7.436Q119.528 7.136 120.052 6.92Q120.576 6.704 121.12 6.704Q121.424 6.704 121.644 6.728Q121.864 6.752 121.968 6.816L121.968 8.544Q121.848 8.48 121.604 8.408Q121.36 8.336 120.816 8.336Q120.32 8.336 119.924 8.476Q119.528 8.616 119.232 8.816Q118.936 9.016 118.752 9.2ZM117.008 15.744L117.008 6.848L118.576 6.848L118.704 7.984L118.848 8.656L118.848 15.744L117.008 15.744ZM126.264 15.872Q124.344 15.872 123.304 14.656Q122.264 13.44 122.264 11.28Q122.264 9.984 122.724 8.96Q123.184 7.936 124.084 7.336Q124.984 6.736 126.296 6.72Q126.968 6.704 127.56 6.912Q128.152 7.12 128.608 7.54Q129.064 7.96 129.332 8.6Q129.6 9.24 129.624 10.096Q129.624 10.6 129.616 10.996Q129.608 11.392 129.544 11.696L123.336 11.696L123.496 10.528L127.896 10.528Q127.936 9.888 127.82 9.316Q127.704 8.744 127.324 8.388Q126.944 8.032 126.2 8.032Q125.576 8.032 125.08 8.38Q124.584 8.728 124.312 9.552Q124.04 10.376 124.088 11.808Q124.136 12.816 124.496 13.4Q124.856 13.984 125.44 14.232Q126.024 14.48 126.744 14.48Q127.048 14.48 127.488 14.412Q127.928 14.344 128.34 14.236Q128.752 14.128 128.968 14L129.32 15.056Q129.024 15.296 128.516 15.48Q128.008 15.664 127.416 15.768Q126.824 15.872 126.264 15.872ZM130.624 15.744L130.288 15.104L134.528 8.864L134.992 8.208L130.768 8.208L130.768 6.832L137.2 6.832L137.472 7.584L133.264 13.76L132.8 14.416L137.312 14.416L137.312 15.744L130.624 15.744ZM140.904 15.872Q140.104 15.872 139.484 15.556Q138.864 15.24 138.508 14.66Q138.152 14.08 138.152 13.288Q138.152 12.432 138.612 11.836Q139.072 11.24 139.848 10.904Q140.36 10.696 140.96 10.572Q141.56 10.448 142.16 10.396Q142.76 10.344 143.272 10.344L143.656 10.832L143.272 11.48Q142.96 11.48 142.524 11.524Q142.088 11.568 141.664 11.66Q141.24 11.752 140.944 11.896Q140.536 12.08 140.264 12.368Q139.992 12.656 139.992 13.168Q139.992 13.84 140.364 14.184Q140.736 14.528 141.472 14.528Q141.848 14.528 142.232 14.416Q142.616 14.304 142.9 14.16Q143.184 14.016 143.272 13.912L143.64 14.304L143.376 14.992Q143.024 15.312 142.36 15.592Q141.696 15.872 140.904 15.872ZM145.12 15.744L143.376 15.744L143.376 14.416L143.272 14.416L143.272 9.504Q143.272 8.72 142.86 8.468Q142.448 8.216 141.688 8.216Q141.184 8.216 140.648 8.316Q140.112 8.416 139.664 8.564Q139.216 8.712 138.976 8.864L138.544 7.536Q138.728 7.424 139.252 7.224Q139.776 7.024 140.476 6.86Q141.176 6.696 141.864 6.696Q142.864 6.696 143.596 6.928Q144.328 7.16 144.724 7.788Q145.12 8.416 145.12 9.608L145.12 15.744Z" />
          </g>
        </g>
        <g id="assessment (1)">
          <path d="M24 0L24 0L24 24L0 24L0 0L24 0Z" id="assessment-(1)" fill="none" stroke="none" />
          <path d="M11 23C11 23.553 10.552 24 10 24L5 24C2.243 24 0 21.757 0 19L0 5.001C0 2.244 2.242 0 4.999 0L15 0C17.757 0 20 2.242 20 4.999L20 6.999C20 7.552 19.552 7.999 19 7.999C18.448 7.999 18 7.552 18 6.999L18 4.999C18 3.345 16.654 1.999 15 1.999L4.999 1.999C3.345 1.999 1.999 3.346 1.999 5L1.999 18.999C1.999 20.653 3.345 21.999 4.999 21.999L9.999 21.999C10.551 21.999 10.999 22.446 10.999 22.999L11 23ZM23.553 23.5531C23.358 23.7481 23.102 23.8461 22.846 23.8461C22.59 23.8461 22.334 23.7481 22.139 23.5531L19.473 20.8871C18.492 21.585 17.296 22 16 22C12.686 22 10 19.3141 10 16C10 12.6861 12.686 10 16 10C19.314 10 22 12.686 22 16C22 17.2961 21.585 18.4921 20.887 19.4731L23.553 22.1391C23.944 22.5301 23.944 23.1621 23.553 23.5531L23.553 23.5531ZM16.98 18.3261L19.683 15.7121C20.081 15.3291 20.095 14.6961 19.712 14.2981C19.33 13.8991 18.697 13.8881 18.298 14.2691L15.585 16.8931C15.442 17.0351 15.207 17.0361 15.063 16.8931L13.931 15.7851C13.536 15.3991 12.903 15.4061 12.517 15.8011C12.13 16.1961 12.137 16.8281 12.532 17.2151L13.664 18.3231C14.123 18.7721 14.726 18.9971 15.328 18.9971C15.93 18.9971 16.529 18.7721 16.981 18.3261L16.98 18.3261ZM7 4.99995L5 4.99995C4.448 4.99995 4 5.44695 4 5.99995C4 6.55295 4.448 6.99995 5 6.99995L7 6.99995C7.552 6.99995 8 6.55295 8 5.99995C8 5.44695 7.552 4.99995 7 4.99995L7 4.99995ZM7 15L5 15C4.448 15 4 15.447 4 16C4 16.553 4.448 17 5 17L7 17C7.552 17 8 16.553 8 16C8 15.447 7.552 15 7 15L7 15ZM11 4.99995C10.448 4.99995 10 5.44695 10 5.99995C10 6.55295 10.448 6.99995 11 6.99995L15 6.99995C15.552 6.99995 16 6.55295 16 5.99995C16 5.44695 15.552 4.99995 15 4.99995L11 4.99995L11 4.99995ZM7 10L5 10C4.448 10 4 10.447 4 11C4 11.5531 4.448 12 5 12L7 12C7.552 12 8 11.5531 8 11C8 10.447 7.552 10 7 10L7 10Z" id="Shape" fill="#0075F3" fill-rule="evenodd" stroke="none" clip-path="url(#clip_2)" />
        </g>
      </g>
    </g>
  </g>
</svg>