<?xml version="1.0" encoding="utf-8"?>
<svg width="182px" height="40px" viewBox="0 0 182 40" version="1.1" xmlns:xlink="http://www.w3.org/1999/xlink" xmlns="http://www.w3.org/2000/svg">
  <defs>
    <path d="M182 0L182 0L182 40L0 40L0 0L182 0Z" id="path_1" />
    <path d="M20 0L20 0L20 20L0 20L0 0L20 0Z" id="path_2" />
    <clipPath id="clip_1">
      <use xlink:href="#path_1" clip-rule="evenodd" fill-rule="evenodd" />
    </clipPath>
    <clipPath id="clip_2">
      <use xlink:href="#path_2" clip-rule="evenodd" fill-rule="evenodd" />
    </clipPath>
  </defs>
  <g id="Frame">
    <path d="M182 0L182 0L182 40L0 40L0 0L182 0Z" id="Frame" fill="#FFFFFF" fill-opacity="0" stroke="none" />
    <g id="Muhammad-Fahreza" transform="translate(35 11)" clip-path="url(#clip_1)">
      <g transform="translate(0, 3.822)" id="Muhammad-Fahreza" fill="#2D2D2D">
        <path d="M1.022 13.776L2.128 3.374L3.766 3.374L6.076 10.136L6.58 12.082L7.084 10.136L9.254 3.374L10.808 3.374L12.152 13.776L10.99 13.776L10.262 7.308L9.954 4.228L9.114 7.308L6.902 13.874L6.272 13.874L3.948 7.308L3.024 4.228L2.758 7.308L2.142 13.776L1.022 13.776ZM16.52 13.888Q15.771 13.888 15.316 13.6465Q14.861 13.405 14.63 12.9605Q14.399 12.516 14.3185 11.907Q14.238 11.298 14.238 10.556L14.238 5.978L15.372 5.978L15.372 10.598Q15.372 11.578 15.5225 12.082Q15.673 12.586 16.023 12.761Q16.373 12.936 16.982 12.936Q17.374 12.936 17.787 12.824Q18.2 12.712 18.5535 12.544Q18.907 12.376 19.124 12.208L19.124 5.978L20.272 5.978L20.272 13.86L19.824 13.86Q19.551 13.86 19.4005 13.7795Q19.25 13.699 19.25 13.398L19.25 12.768L19.264 12.964Q18.9 13.223 18.438 13.433Q17.976 13.643 17.479 13.7655Q16.982 13.888 16.52 13.888ZM22.848 13.776L22.848 2.394L23.996 2.394L23.996 5.866L23.926 7.07L23.87 6.986Q24.15 6.755 24.6155 6.4995Q25.081 6.244 25.648 6.062Q26.215 5.88 26.796 5.866Q28.091 5.845 28.6545 6.5835Q29.218 7.322 29.204 9.142L29.204 13.776L28.07 13.776L28.07 9.072Q28.07 7.798 27.7025 7.2905Q27.335 6.783 26.334 6.818Q25.76 6.839 25.109 7.126Q24.458 7.413 23.996 7.77L23.996 13.776L22.848 13.776ZM33.474 13.888Q32.788 13.888 32.2525 13.629Q31.717 13.37 31.4125 12.8835Q31.108 12.397 31.108 11.718Q31.108 10.948 31.5385 10.4125Q31.969 9.877 32.788 9.576Q33.243 9.401 33.796 9.2995Q34.349 9.198 34.8845 9.156Q35.42 9.114 35.826 9.114L36.078 9.436L35.826 9.842Q35.546 9.842 35.105 9.877Q34.664 9.912 34.2055 9.9925Q33.747 10.073 33.418 10.206Q32.83 10.423 32.529 10.766Q32.228 11.109 32.228 11.634Q32.228 12.243 32.599 12.6385Q32.97 13.034 33.81 13.034Q34.307 13.034 34.7375 12.901Q35.168 12.768 35.462 12.6035Q35.756 12.439 35.84 12.348L36.092 12.572L35.91 13.034Q35.595 13.328 34.9545 13.608Q34.314 13.888 33.474 13.888ZM36.96 13.776L35.896 13.776L35.896 12.67L35.826 12.656L35.826 8.302Q35.826 7.406 35.3745 7.105Q34.923 6.804 34.006 6.804Q33.614 6.804 33.1765 6.9055Q32.739 7.007 32.368 7.161Q31.997 7.315 31.794 7.462L31.514 6.65Q31.647 6.559 32.0705 6.37Q32.494 6.181 33.082 6.0235Q33.67 5.866 34.3 5.866Q35.098 5.866 35.6965 6.076Q36.295 6.286 36.6275 6.825Q36.96 7.364 36.96 8.344L36.96 13.776ZM39.522 13.776L39.522 5.992L40.544 5.992L40.544 6.986Q40.831 6.755 41.3 6.4995Q41.769 6.244 42.322 6.062Q42.875 5.88 43.414 5.866Q44.198 5.852 44.6845 6.1215Q45.171 6.391 45.3985 7.063Q45.626 7.735 45.626 8.932L45.626 13.776L44.492 13.776L44.492 9.016Q44.492 8.239 44.3765 7.7455Q44.261 7.252 43.9285 7.028Q43.596 6.804 42.952 6.832Q42.441 6.853 41.7865 7.1225Q41.132 7.392 40.67 7.77L40.67 13.776L39.522 13.776ZM45.514 7.672L45.262 6.972Q45.549 6.741 46.011 6.4855Q46.473 6.23 47.033 6.0515Q47.593 5.873 48.174 5.866Q49 5.859 49.5005 6.153Q50.001 6.447 50.2285 7.1295Q50.456 7.812 50.456 8.974L50.456 13.776L49.322 13.776L49.322 9.03Q49.322 8.302 49.2135 7.8015Q49.105 7.301 48.7655 7.049Q48.426 6.797 47.74 6.818Q47.187 6.825 46.571 7.0945Q45.955 7.364 45.514 7.672ZM53.088 13.776L53.088 5.992L54.11 5.992L54.11 6.986Q54.397 6.755 54.866 6.4995Q55.335 6.244 55.888 6.062Q56.441 5.88 56.98 5.866Q57.764 5.852 58.2505 6.1215Q58.737 6.391 58.9645 7.063Q59.192 7.735 59.192 8.932L59.192 13.776L58.058 13.776L58.058 9.016Q58.058 8.239 57.9425 7.7455Q57.827 7.252 57.4945 7.028Q57.162 6.804 56.518 6.832Q56.007 6.853 55.3525 7.1225Q54.698 7.392 54.236 7.77L54.236 13.776L53.088 13.776ZM59.08 7.672L58.828 6.972Q59.115 6.741 59.577 6.4855Q60.039 6.23 60.599 6.0515Q61.159 5.873 61.74 5.866Q62.566 5.859 63.0665 6.153Q63.567 6.447 63.7945 7.1295Q64.022 7.812 64.022 8.974L64.022 13.776L62.888 13.776L62.888 9.03Q62.888 8.302 62.7795 7.8015Q62.671 7.301 62.3315 7.049Q61.992 6.797 61.306 6.818Q60.753 6.825 60.137 7.0945Q59.521 7.364 59.08 7.672ZM68.292 13.888Q67.606 13.888 67.0705 13.629Q66.535 13.37 66.2305 12.8835Q65.926 12.397 65.926 11.718Q65.926 10.948 66.3565 10.4125Q66.787 9.877 67.606 9.576Q68.061 9.401 68.614 9.2995Q69.167 9.198 69.7025 9.156Q70.238 9.114 70.644 9.114L70.896 9.436L70.644 9.842Q70.364 9.842 69.923 9.877Q69.482 9.912 69.0235 9.9925Q68.565 10.073 68.236 10.206Q67.648 10.423 67.347 10.766Q67.046 11.109 67.046 11.634Q67.046 12.243 67.417 12.6385Q67.788 13.034 68.628 13.034Q69.125 13.034 69.5555 12.901Q69.986 12.768 70.28 12.6035Q70.574 12.439 70.658 12.348L70.91 12.572L70.728 13.034Q70.413 13.328 69.7725 13.608Q69.132 13.888 68.292 13.888ZM71.778 13.776L70.714 13.776L70.714 12.67L70.644 12.656L70.644 8.302Q70.644 7.406 70.1925 7.105Q69.741 6.804 68.824 6.804Q68.432 6.804 67.9945 6.9055Q67.557 7.007 67.186 7.161Q66.815 7.315 66.612 7.462L66.332 6.65Q66.465 6.559 66.8885 6.37Q67.312 6.181 67.9 6.0235Q68.488 5.866 69.118 5.866Q69.916 5.866 70.5145 6.076Q71.113 6.286 71.4455 6.825Q71.778 7.364 71.778 8.344L71.778 13.776ZM79.184 13.776L79.184 12.698L79.128 12.67L79.128 6.93L79.17 6.902L79.128 5.67L79.128 2.394L80.234 2.394L80.234 13.776L79.184 13.776ZM76.776 13.888Q75.978 13.888 75.2745 13.4995Q74.571 13.111 74.1335 12.2815Q73.696 11.452 73.696 10.136Q73.696 8.89 74.1825 7.931Q74.669 6.972 75.5475 6.426Q76.426 5.88 77.602 5.88Q78.358 5.88 78.897 6.055Q79.436 6.23 79.562 6.356L79.142 7.098Q78.953 6.93 78.5435 6.818Q78.134 6.706 77.49 6.706Q76.748 6.706 76.1565 7.091Q75.565 7.476 75.2185 8.2075Q74.872 8.939 74.858 9.982Q74.837 11.501 75.4355 12.2465Q76.034 12.992 77.084 12.992Q77.77 12.992 78.316 12.712Q78.862 12.432 79.142 12.194L79.324 12.782Q79.156 12.95 78.834 13.2125Q78.512 13.475 78.0045 13.6815Q77.497 13.888 76.776 13.888ZM85.33 13.776L85.33 3.374L91.14 3.374L91.14 4.27L86.478 4.27L86.478 8.106L89.964 8.106L89.964 9.002L86.478 9.002L86.478 13.776L85.33 13.776ZM93.898 13.888Q93.212 13.888 92.6765 13.629Q92.141 13.37 91.8365 12.8835Q91.532 12.397 91.532 11.718Q91.532 10.948 91.9625 10.4125Q92.393 9.877 93.212 9.576Q93.667 9.401 94.22 9.2995Q94.773 9.198 95.3085 9.156Q95.844 9.114 96.25 9.114L96.502 9.436L96.25 9.842Q95.97 9.842 95.529 9.877Q95.088 9.912 94.6295 9.9925Q94.171 10.073 93.842 10.206Q93.254 10.423 92.953 10.766Q92.652 11.109 92.652 11.634Q92.652 12.243 93.023 12.6385Q93.394 13.034 94.234 13.034Q94.731 13.034 95.1615 12.901Q95.592 12.768 95.886 12.6035Q96.18 12.439 96.264 12.348L96.516 12.572L96.334 13.034Q96.019 13.328 95.3785 13.608Q94.738 13.888 93.898 13.888ZM97.384 13.776L96.32 13.776L96.32 12.67L96.25 12.656L96.25 8.302Q96.25 7.406 95.7985 7.105Q95.347 6.804 94.43 6.804Q94.038 6.804 93.6005 6.9055Q93.163 7.007 92.792 7.161Q92.421 7.315 92.218 7.462L91.938 6.65Q92.071 6.559 92.4945 6.37Q92.918 6.181 93.506 6.0235Q94.094 5.866 94.724 5.866Q95.522 5.866 96.1205 6.076Q96.719 6.286 97.0515 6.825Q97.384 7.364 97.384 8.344L97.384 13.776ZM99.918 13.776L99.918 2.394L101.066 2.394L101.066 5.866L100.996 7.07L100.94 6.986Q101.22 6.755 101.686 6.4995Q102.151 6.244 102.718 6.062Q103.285 5.88 103.866 5.866Q105.161 5.845 105.725 6.5835Q106.288 7.322 106.274 9.142L106.274 13.776L105.14 13.776L105.14 9.072Q105.14 7.798 104.773 7.2905Q104.405 6.783 103.404 6.818Q102.83 6.839 102.179 7.126Q101.528 7.413 101.066 7.77L101.066 13.776L99.918 13.776ZM109.844 7.854L109.76 7.098Q109.879 6.902 110.25 6.615Q110.621 6.328 111.132 6.104Q111.643 5.88 112.182 5.88Q112.448 5.88 112.634 5.901Q112.819 5.922 112.924 5.964L112.924 7.042Q112.819 6.986 112.613 6.93Q112.406 6.874 111.972 6.874Q111.496 6.874 111.08 7.0385Q110.663 7.203 110.345 7.4305Q110.026 7.658 109.844 7.854ZM108.766 13.776L108.766 5.992L109.746 5.992L109.816 7.098L109.914 7.588L109.914 13.776L108.766 13.776ZM117.138 13.888Q115.5 13.888 114.625 12.8345Q113.75 11.781 113.75 9.912Q113.75 8.743 114.156 7.8365Q114.562 6.93 115.339 6.4085Q116.116 5.887 117.236 5.88Q117.859 5.866 118.367 6.0725Q118.874 6.279 119.242 6.6675Q119.609 7.056 119.816 7.5985Q120.022 8.141 120.036 8.806Q120.036 9.17 120.029 9.4605Q120.022 9.751 119.98 9.996L114.436 9.996L114.534 9.226L118.958 9.226Q119 8.512 118.843 7.938Q118.685 7.364 118.279 7.028Q117.873 6.692 117.166 6.692Q116.494 6.692 115.962 7.0525Q115.43 7.413 115.132 8.204Q114.835 8.995 114.87 10.276Q114.905 11.277 115.241 11.879Q115.577 12.481 116.144 12.7505Q116.711 13.02 117.432 13.02Q117.789 13.02 118.199 12.929Q118.608 12.838 118.969 12.7015Q119.329 12.565 119.532 12.432L119.77 13.174Q119.518 13.384 119.084 13.545Q118.65 13.706 118.136 13.797Q117.621 13.888 117.138 13.888ZM121.576 13.776L121.338 13.328L125.412 7.532L125.888 6.86L121.674 6.86L121.674 5.978L127.232 5.978L127.428 6.482L123.368 12.278L122.878 12.936L127.358 12.936L127.358 13.776L121.576 13.776ZM131.152 13.888Q130.466 13.888 129.93 13.629Q129.395 13.37 129.09 12.8835Q128.786 12.397 128.786 11.718Q128.786 10.948 129.216 10.4125Q129.647 9.877 130.466 9.576Q130.921 9.401 131.474 9.2995Q132.027 9.198 132.562 9.156Q133.098 9.114 133.504 9.114L133.756 9.436L133.504 9.842Q133.224 9.842 132.783 9.877Q132.342 9.912 131.883 9.9925Q131.425 10.073 131.096 10.206Q130.508 10.423 130.207 10.766Q129.906 11.109 129.906 11.634Q129.906 12.243 130.277 12.6385Q130.648 13.034 131.488 13.034Q131.985 13.034 132.415 12.901Q132.846 12.768 133.14 12.6035Q133.434 12.439 133.518 12.348L133.77 12.572L133.588 13.034Q133.273 13.328 132.632 13.608Q131.992 13.888 131.152 13.888ZM134.638 13.776L133.574 13.776L133.574 12.67L133.504 12.656L133.504 8.302Q133.504 7.406 133.053 7.105Q132.601 6.804 131.684 6.804Q131.292 6.804 130.854 6.9055Q130.417 7.007 130.046 7.161Q129.675 7.315 129.472 7.462L129.192 6.65Q129.325 6.559 129.749 6.37Q130.172 6.181 130.76 6.0235Q131.348 5.866 131.978 5.866Q132.776 5.866 133.374 6.076Q133.973 6.286 134.305 6.825Q134.638 7.364 134.638 8.344L134.638 13.776Z" />
      </g>
    </g>
    <g id="assessment (1)" clip-path="url(#clip_1)">
      <path d="M20 0L20 0L20 20L0 20L0 0L20 0Z" id="assessment-(1)" fill="none" stroke="none" transform="translate(8 10)" />
      <path d="M9.16667 19.1667C9.16667 19.6275 8.79333 20 8.33333 20L4.16667 20C1.86917 20 0 18.1308 0 15.8333L0 4.1675C0 1.87 1.86833 0 4.16583 0L12.5 0C14.7975 0 16.6667 1.86833 16.6667 4.16583L16.6667 5.8325C16.6667 6.29333 16.2933 6.66583 15.8333 6.66583C15.3733 6.66583 15 6.29333 15 5.8325L15 4.16583C15 2.7875 13.8783 1.66583 12.5 1.66583L4.16583 1.66583C2.7875 1.66583 1.66583 2.78833 1.66583 4.16667L1.66583 15.8325C1.66583 17.2108 2.7875 18.3325 4.16583 18.3325L8.3325 18.3325C8.7925 18.3325 9.16584 18.705 9.16584 19.1658L9.16667 19.1667ZM19.6275 19.6275C19.465 19.79 19.2517 19.8717 19.0383 19.8717C18.825 19.8717 18.6117 19.79 18.4492 19.6275L16.2275 17.4059C15.41 17.9875 14.4133 18.3334 13.3333 18.3334C10.5717 18.3334 8.33334 16.095 8.33334 13.3334C8.33334 10.5717 10.5717 8.33337 13.3333 8.33337C16.095 8.33337 18.3333 10.5717 18.3333 13.3334C18.3333 14.4134 17.9875 15.41 17.4058 16.2275L19.6275 18.4492C19.9533 18.775 19.9533 19.3017 19.6275 19.6275L19.6275 19.6275ZM14.15 15.2717L16.4025 13.0934C16.7342 12.7742 16.7458 12.2467 16.4267 11.9151C16.1083 11.5826 15.5808 11.5734 15.2483 11.8909L12.9875 14.0776C12.8683 14.1959 12.6725 14.1967 12.5525 14.0776L11.6092 13.1542C11.28 12.8326 10.7525 12.8384 10.4308 13.1676C10.1083 13.4967 10.1142 14.0234 10.4433 14.3459L11.3867 15.2692C11.7692 15.6434 12.2717 15.8309 12.7733 15.8309C13.275 15.8309 13.7742 15.6434 14.1508 15.2717L14.15 15.2717ZM5.83334 4.16663L4.16667 4.16663C3.70667 4.16663 3.33334 4.53913 3.33334 4.99996C3.33334 5.46079 3.70667 5.83329 4.16667 5.83329L5.83334 5.83329C6.29334 5.83329 6.66667 5.46079 6.66667 4.99996C6.66667 4.53913 6.29334 4.16663 5.83334 4.16663L5.83334 4.16663ZM5.83334 12.5L4.16667 12.5C3.70667 12.5 3.33334 12.8725 3.33334 13.3333C3.33334 13.7942 3.70667 14.1667 4.16667 14.1667L5.83334 14.1667C6.29334 14.1667 6.66667 13.7942 6.66667 13.3333C6.66667 12.8725 6.29334 12.5 5.83334 12.5L5.83334 12.5ZM9.16667 4.16663C8.70667 4.16663 8.33334 4.53913 8.33334 4.99996C8.33334 5.46079 8.70667 5.83329 9.16667 5.83329L12.5 5.83329C12.96 5.83329 13.3333 5.46079 13.3333 4.99996C13.3333 4.53913 12.96 4.16663 12.5 4.16663L9.16667 4.16663L9.16667 4.16663ZM5.83334 8.33337L4.16667 8.33337C3.70667 8.33337 3.33334 8.70587 3.33334 9.16671C3.33334 9.62754 3.70667 10 4.16667 10L5.83334 10C6.29334 10 6.66667 9.62754 6.66667 9.16671C6.66667 8.70587 6.29334 8.33337 5.83334 8.33337L5.83334 8.33337Z" id="Shape" fill="#0075F3" fill-rule="evenodd" stroke="none" clip-path="url(#clip_2)" transform="translate(8 10)" />
    </g>
  </g>
</svg>